<svg width="31" height="31" viewBox="0 0 31 31" fill="none" xmlns="http://www.w3.org/2000/svg">
<path d="M5.16699 15.625C5.16699 13.7394 5.16699 12.7966 5.75278 12.2108C6.33857 11.625 7.28137 11.625 9.16699 11.625H11.2601C12.0776 11.625 12.4864 11.625 12.8539 11.7772C13.2215 11.9295 13.5105 12.2185 14.0886 12.7966L15.6204 14.3284C16.1985 14.9065 16.4875 15.1955 16.8551 15.3478C17.2226 15.5 17.6313 15.5 18.4488 15.5H21.8337C23.7193 15.5 24.6621 15.5 25.2479 16.0858C25.8337 16.6716 25.8337 17.6144 25.8337 19.5V21.8333C25.8337 23.719 25.8337 24.6618 25.2479 25.2475C24.6621 25.8333 23.7193 25.8333 21.8337 25.8333H9.16699C7.28137 25.8333 6.33857 25.8333 5.75278 25.2475C5.16699 24.6618 5.16699 23.719 5.16699 21.8333V15.625Z" stroke="#1D3557" stroke-width="2"/>
<path d="M23.25 15.5V9.16662C23.25 7.28101 23.25 6.3382 22.6642 5.75241C22.0784 5.16663 21.1356 5.16663 19.25 5.16663H11.75C9.86438 5.16663 8.92157 5.16663 8.33579 5.75241C7.75 6.3382 7.75 7.28101 7.75 9.16663V11.625" stroke="#1D3557" stroke-width="2"/>
</svg>
