<svg width="37" height="30" viewBox="0 0 37 30" fill="none" xmlns="http://www.w3.org/2000/svg">
<path d="M29.2913 23.75H7.70801" stroke="#1D3557" stroke-width="2" stroke-linecap="round"/>
<path d="M14.9587 10H12.792C11.6874 10 10.792 10.8954 10.792 12V18C10.792 19.1046 11.6874 20 12.792 20H14.9587C16.0632 20 16.9587 19.1046 16.9587 18V12C16.9587 10.8954 16.0632 10 14.9587 10Z" fill="#1D3557"/>
<path d="M24.2087 5H22.042C20.9374 5 20.042 5.89543 20.042 7V18C20.042 19.1046 20.9374 20 22.042 20H24.2087C25.3132 20 26.2087 19.1046 26.2087 18V7C26.2087 5.89543 25.3132 5 24.2087 5Z" fill="#1D3557"/>
</svg>
