<svg width="27" height="29" viewBox="0 0 27 29" fill="none" xmlns="http://www.w3.org/2000/svg">
<path d="M13.5 4.83337L5.625 8.45837L13.5 12.0834L21.375 8.45837L13.5 4.83337Z" stroke="#1D3557" stroke-width="2" stroke-linejoin="round"/>
<path fill-rule="evenodd" clip-rule="evenodd" d="M8.60022 12.0296L5.20686 13.5916C4.85221 13.7549 4.625 14.1096 4.625 14.5C4.625 14.8904 4.85221 15.2451 5.20686 15.4084L13.0819 19.0334C13.3472 19.1555 13.6528 19.1555 13.9181 19.0334L21.7931 15.4084C22.1478 15.2451 22.375 14.8904 22.375 14.5C22.375 14.1096 22.1478 13.7549 21.7931 13.5916L18.3998 12.0296L16.0083 13.1305L18.9835 14.5L13.5 17.0241L8.01652 14.5L10.9917 13.1305L8.60022 12.0296ZM13.4858 9.8751C13.4953 9.87497 13.5047 9.87497 13.5142 9.8751L13.5 9.88161L13.4858 9.8751Z" fill="#1D3557"/>
<path fill-rule="evenodd" clip-rule="evenodd" d="M8.60022 18.0712L5.20686 19.6332C4.85221 19.7965 4.625 20.1512 4.625 20.5416C4.625 20.932 4.85221 21.2868 5.20686 21.45L13.0819 25.075C13.3472 25.1972 13.6528 25.1972 13.9181 25.075L21.7931 21.45C22.1478 21.2868 22.375 20.932 22.375 20.5416C22.375 20.1512 22.1478 19.7965 21.7931 19.6332L18.3998 18.0712L16.0083 19.1721L18.9835 20.5416L13.5 23.0658L8.01652 20.5416L10.9917 19.1721L8.60022 18.0712ZM13.4858 15.9167C13.4953 15.9166 13.5047 15.9166 13.5142 15.9167L13.5 15.9232L13.4858 15.9167Z" fill="#1D3557"/>
</svg>
