<svg width="378" height="116" viewBox="0 0 378 116" fill="none" xmlns="http://www.w3.org/2000/svg">
<rect y="116" width="53" height="50" rx="5" transform="rotate(-90 0 116)" fill="#E63A46"/>
<rect x="116.097" y="63.5117" width="53" height="50" rx="5" transform="rotate(90 116.097 63.5117)" fill="#1D3557"/>
<rect x="181.096" y="63" width="53" height="50" rx="5" transform="rotate(90 181.096 63)" fill="#E63A46"/>
<rect x="246.096" y="63.1816" width="53" height="50" rx="5" transform="rotate(90 246.096 63.1816)" fill="#1D3557"/>
<rect x="312" y="63" width="53" height="50" rx="5" transform="rotate(90 312 63)" fill="#E63A46"/>
<rect x="377" y="63.1816" width="53" height="50" rx="5" transform="rotate(90 377 63.1816)" fill="#1D3557"/>
<rect x="197" y="53" width="53" height="50" rx="5" transform="rotate(-90 197 53)" fill="#E63A46"/>
<rect x="313.097" y="0.511719" width="53" height="50" rx="5" transform="rotate(90 313.097 0.511719)" fill="#1D3557"/>
<rect x="378.096" y="0.34668" width="53" height="50" rx="5" transform="rotate(90 378.096 0.34668)" fill="#E63A46"/>
</svg>
