<svg width="1430" height="118" viewBox="0 0 1430 118" fill="none" xmlns="http://www.w3.org/2000/svg">
<rect x="35.0967" y="63.5117" width="53" height="50" rx="5" transform="rotate(90 35.0967 63.5117)" fill="#1D3557"/>
<rect x="100.096" y="63" width="53" height="50" rx="5" transform="rotate(90 100.096 63)" fill="#E63A46"/>
<rect x="165.096" y="63.1816" width="53" height="50" rx="5" transform="rotate(90 165.096 63.1816)" fill="#1D3557"/>
<rect x="231" y="63" width="53" height="50" rx="5" transform="rotate(90 231 63)" fill="#E63A46"/>
<rect x="296" y="63.1816" width="53" height="50" rx="5" transform="rotate(90 296 63.1816)" fill="#1D3557"/>
<rect x="116" y="53" width="53" height="50" rx="5" transform="rotate(-90 116 53)" fill="#E63A46"/>
<rect x="232.097" y="0.511719" width="53" height="50" rx="5" transform="rotate(90 232.097 0.511719)" fill="#1D3557"/>
<rect x="297.096" y="0.34668" width="53" height="50" rx="5" transform="rotate(90 297.096 0.34668)" fill="#E63A46"/>
<rect x="372.096" y="0.181641" width="53" height="50" rx="5" transform="rotate(90 372.096 0.181641)" fill="#1D3557"/>
<rect x="322" y="117" width="53" height="50" rx="5" transform="rotate(-90 322 117)" fill="#E63A46"/>
<rect x="438.097" y="64.5117" width="53" height="50" rx="5" transform="rotate(90 438.097 64.5117)" fill="#1D3557"/>
<rect x="503.096" y="64" width="53" height="50" rx="5" transform="rotate(90 503.096 64)" fill="#E63A46"/>
<rect x="568.096" y="64.1816" width="53" height="50" rx="5" transform="rotate(90 568.096 64.1816)" fill="#1D3557"/>
<rect x="634" y="64" width="53" height="50" rx="5" transform="rotate(90 634 64)" fill="#E63A46"/>
<rect x="699" y="64.1816" width="53" height="50" rx="5" transform="rotate(90 699 64.1816)" fill="#1D3557"/>
<rect x="856" y="117" width="53" height="50" rx="5" transform="rotate(-90 856 117)" fill="#E63A46"/>
<rect x="972.097" y="64.5117" width="53" height="50" rx="5" transform="rotate(90 972.097 64.5117)" fill="#1D3557"/>
<rect x="1037.1" y="64" width="53" height="50" rx="5" transform="rotate(90 1037.1 64)" fill="#E63A46"/>
<rect x="1102.1" y="64.1816" width="53" height="50" rx="5" transform="rotate(90 1102.1 64.1816)" fill="#1D3557"/>
<rect x="1168" y="64" width="53" height="50" rx="5" transform="rotate(90 1168 64)" fill="#E63A46"/>
<rect x="1233" y="64.1816" width="53" height="50" rx="5" transform="rotate(90 1233 64.1816)" fill="#1D3557"/>
<rect x="519" y="54" width="53" height="50" rx="5" transform="rotate(-90 519 54)" fill="#E63A46"/>
<rect x="635.097" y="1.51172" width="53" height="50" rx="5" transform="rotate(90 635.097 1.51172)" fill="#1D3557"/>
<rect x="700.096" y="1.34668" width="53" height="50" rx="5" transform="rotate(90 700.096 1.34668)" fill="#E63A46"/>
<rect x="765.096" y="1.18164" width="53" height="50" rx="5" transform="rotate(90 765.096 1.18164)" fill="#1D3557"/>
<rect x="790" y="55" width="53" height="50" rx="5" transform="rotate(-90 790 55)" fill="#E63A46"/>
<rect x="906.097" y="2.51172" width="53" height="50" rx="5" transform="rotate(90 906.097 2.51172)" fill="#1D3557"/>
<rect x="971.096" y="2.34668" width="53" height="50" rx="5" transform="rotate(90 971.096 2.34668)" fill="#E63A46"/>
<rect x="1037.1" y="2.18164" width="53" height="50" rx="5" transform="rotate(90 1037.1 2.18164)" fill="#1D3557"/>
<rect x="1183" y="53" width="53" height="50" rx="5" transform="rotate(-90 1183 53)" fill="#E63A46"/>
<rect x="1299.1" y="0.511719" width="53" height="50" rx="5" transform="rotate(90 1299.1 0.511719)" fill="#1D3557"/>
<rect x="1364.1" y="0.34668" width="53" height="50" rx="5" transform="rotate(90 1364.1 0.34668)" fill="#E63A46"/>
<rect x="1365" y="63.165" width="53" height="50" rx="5" transform="rotate(90 1365 63.165)" fill="#1D3557"/>
<rect x="1430" y="63" width="53" height="50" rx="5" transform="rotate(90 1430 63)" fill="#E63A46"/>
</svg>
